Genre:Biography | Drama | Sport
Language:English
 
http://www.imdb.com/title/tt0964517/

Source:BluRay-HDChina
Subtitles:Romana

Format : MPEG-4
Format profile : Base Media
Codec ID : isom
File size : 2.45 GiB
Duration : 1h 55mn
Overall bit rate : 3 031 Kbps


Video
Format profile : High@L4.1
Format settings, CABAC : Yes
Format settings, ReFrames : 3 frames
Codec ID : avc1
Codec ID/Info : Advanced Video Coding
Duration : 1h 55mn
Bit rate mode : Variable
Bit rate : 2 623 Kbps
Maximum bit rate : 16.1 Mbps
Width : 1 280 pixels
Height : 528 pixels
Display aspect ratio : 2.40:1
Frame rate mode : Constant
Frame rate : 23.976 fps
Color space : YUV
Chroma subsampling : 4:2:0
Bit depth : 8 bits
Scan type : Progressive
Bits/(Pixel*Frame) : 0.162
Stream size : 2.10 GiB (86%)
Writing library : x264


Audio
ID : 2
Format : AAC
Format/Info : Advanced Audio Codec
Format version : Version 4
Format profile : LC
Format settings, SBR : No
Codec ID : 40
Duration : 1h 55mn
Bit rate mode : Variable
Bit rate : 428 Kbps
Maximum bit rate : 578 Kbps
Channel(s) : 6 channels
Channel positions : Front: L C R, Side: L R, LFE
Sampling rate : 48.0 KHz
Stream size : 354 MiB (14%)


Plot:
A look at the early years of boxer "Irish" Micky Ward and his brother who helped train him before going pro in the mid 1980s
 
http://www.postimg.com/30000/photo-29650.jpg
 
http://www.postimg.com/30000/photo-29651.jpg
 
http://www.postimg.com/30000/photo-29651.jpg
 
http://www.postimg.com/30000/photo-29652.jpg
 
http://www.postimg.com/30000/photo-29653.jpg
 
http://www.postimg.com/30000/photo-29655.jpg
 
http://www.postimg.com/30000/photo-29654.jpg

